<svg width="500" height="500" viewBox="0 0 500 500" fill="none" xmlns="http://www.w3.org/2000/svg">
<rect width="500" height="500" rx="64" fill="white"/>
<path d="M184.946 182.274C184.203 181.176 173.014 165.394 153.473 165.441C150.052 165.441 138.969 165.967 130.352 173.87C119.401 183.898 121.549 197.555 121.999 200.015C125.128 217.277 143.185 224.703 144.617 225.276C148.541 218.614 154.082 210.568 161.825 202.235C169.912 193.496 178.105 186.978 184.946 182.274Z" fill="black"/>
<path d="M305.058 182.274C305.801 181.176 316.99 165.394 336.532 165.441C339.952 165.441 351.035 165.967 359.653 173.87C370.603 183.898 368.456 197.555 368.005 200.015C364.876 217.277 346.819 224.703 345.388 225.276C341.463 218.614 335.922 210.568 328.179 202.235C320.092 193.496 311.899 186.978 305.058 182.274Z" fill="black"/>
<path d="M216.498 228.595C210.665 223.437 198.999 224.536 191.787 229.598C191.23 230.003 183.275 235.758 183.673 244.879C183.938 251.468 188.525 259.157 194.014 259.491C196.506 259.634 198.442 258.226 202.127 255.504C207.033 251.874 206.847 250.227 212.097 245.547C217.188 240.987 219.23 240.867 220.051 238.122C221.006 234.731 219.044 230.839 216.498 228.595Z" fill="black"/>
<path d="M279.816 228.977C285.65 223.819 297.316 224.918 304.528 229.98C305.085 230.386 313.04 236.14 312.642 245.261C312.377 251.851 307.79 259.539 302.301 259.873C299.809 260.016 297.873 258.608 294.188 255.886C289.282 252.256 289.468 250.609 284.218 245.929C279.127 241.369 277.085 241.249 276.263 238.504C275.309 235.113 277.298 231.221 279.816 228.977Z" fill="black"/>
<path d="M225.646 257.127C245.082 251.636 262.714 255.241 268.945 256.578C270.138 256.841 271.65 257.175 273.4 257.653C273.267 259.014 272.922 260.924 272.127 263.12C270.138 268.612 266.585 272.026 264.013 274.414C258.79 279.309 253.089 282.102 248.873 283.726C242.695 282.031 238.294 279.547 235.589 277.757C232.036 275.393 224.851 270.594 222.676 262.356C222.226 260.685 222.093 259.252 222.067 258.25C222.942 257.939 224.161 257.557 225.646 257.127Z" fill="black"/>
<path d="M131.969 334.559C145.764 334.559 156.946 324.489 156.946 312.067C156.946 299.645 145.764 289.575 131.969 289.575C118.175 289.575 106.992 299.645 106.992 312.067C106.992 324.489 118.175 334.559 131.969 334.559Z" fill="black"/>
<path d="M369.278 334.559C383.072 334.559 394.255 324.489 394.255 312.067C394.255 299.645 383.072 289.575 369.278 289.575C355.483 289.575 344.301 299.645 344.301 312.067C344.301 324.489 355.483 334.559 369.278 334.559Z" fill="black"/>
<path d="M49.375 298.648C47.8636 300.702 45 305.191 45 311.279C45 316.532 47.1477 320.519 48.5 322.573C65.9733 323.026 83.4732 323.456 100.947 323.91C101.238 315.481 101.53 307.077 101.822 298.648C84.3216 298.648 66.8483 298.648 49.375 298.648Z" fill="#08AF0C"/>
<path d="M160.34 299.651C159.597 306.958 158.855 314.264 158.139 321.57C166.491 321.785 174.87 322.024 183.222 322.238C183.726 314.264 184.203 306.289 184.707 298.314C176.594 298.768 168.48 299.222 160.34 299.651Z" fill="#08AF0C"/>
<path d="M191.681 299.651C191.415 306.957 191.124 314.264 190.859 321.57C199.131 321.594 211.673 321.498 227.025 320.901C242.165 320.328 247.282 319.755 255.794 319.564C267.222 319.325 283.74 319.851 304.263 323.552C304.528 314.479 304.82 305.382 305.085 296.309C288.672 298.911 275.097 299.89 265.631 300.296C261.017 300.487 254.441 300.678 226.998 300.296C212.309 300.105 200.165 299.842 191.681 299.651Z" fill="#08AF0C"/>
<path d="M313.093 296.332C313.358 304.713 313.623 313.094 313.888 321.474C323.036 321.737 332.21 321.976 341.357 322.238C341.092 313.858 340.827 305.477 340.562 297.097C331.414 296.834 322.267 296.595 313.093 296.332Z" fill="#08AF0C"/>
<path d="M396.959 300.32C396.959 307.626 396.959 314.932 396.959 322.238C414.3 322.692 431.667 323.122 449.008 323.576C455 318.633 456.644 311.709 453.277 306.289C450.095 301.203 443.705 299.365 442.194 298.983C427.133 299.436 412.046 299.866 396.959 300.32Z" fill="#08AF0C"/>
</svg>
