<svg width="361" height="166" viewBox="0 0 361 166" fill="none" xmlns="http://www.w3.org/2000/svg">
<path d="M123.221 16.4724C122.567 15.3976 112.715 -0.046624 95.5088 0.000105826C92.4971 0.000105826 82.7385 0.514149 75.151 8.24793C65.5091 18.0612 67.4001 31.4259 67.797 33.8325C70.5519 50.7253 86.4505 57.9918 87.7112 58.5526C91.1664 52.0338 96.0457 44.1598 102.863 36.0054C109.983 27.4539 117.197 21.0753 123.221 16.4724Z" fill="black"/>
<path d="M228.978 16.4724C229.632 15.3976 239.484 -0.046624 256.69 0.000105826C259.701 0.000105826 269.46 0.514149 277.048 8.24793C286.689 18.0612 284.798 31.4259 284.402 33.8325C281.647 50.7253 265.748 57.9918 264.487 58.5526C261.032 52.0338 256.153 44.1598 249.336 36.0054C242.215 27.4539 235.001 21.0753 228.978 16.4724Z" fill="black"/>
<path d="M151.002 61.8001C145.866 56.7533 135.594 57.828 129.244 62.7814C128.753 63.1786 121.75 68.8095 122.1 77.7349C122.333 84.1836 126.372 91.7072 131.205 92.0343C133.399 92.1745 135.104 90.7959 138.349 88.1323C142.668 84.5809 142.504 82.9687 147.127 78.3891C151.609 73.9264 153.407 73.8097 154.131 71.1227C154.971 67.8049 153.243 63.9964 151.002 61.8001Z" fill="black"/>
<path d="M206.752 62.174C211.888 57.1272 222.16 58.202 228.511 63.1553C229.001 63.5525 236.005 69.1834 235.654 78.1088C235.421 84.5576 231.382 92.0811 226.55 92.4082C224.355 92.5483 222.651 91.1698 219.406 88.5062C215.087 84.9548 215.25 83.3426 210.628 78.7631C206.145 74.3004 204.347 74.1835 203.624 71.4966C202.783 68.1788 204.534 64.3703 206.752 62.174Z" fill="black"/>
<path d="M159.056 89.7213C176.169 84.3474 191.694 87.8755 197.181 89.1839C198.231 89.4409 199.562 89.768 201.103 90.2353C200.986 91.5671 200.682 93.4363 199.982 95.5859C198.231 100.96 195.103 104.301 192.838 106.638C188.239 111.427 183.22 114.161 179.508 115.75C174.068 114.091 170.193 111.661 167.811 109.909C164.683 107.595 158.356 102.899 156.442 94.8382C156.045 93.2027 155.928 91.8008 155.905 90.8195C156.675 90.5157 157.749 90.1419 159.056 89.7213Z" fill="black"/>
<path d="M76.575 165.494C88.7208 165.494 98.5669 155.64 98.5669 143.484C98.5669 131.328 88.7208 121.474 76.575 121.474C64.4291 121.474 54.583 131.328 54.583 143.484C54.583 155.64 64.4291 165.494 76.575 165.494Z" fill="black"/>
<path d="M285.521 165.494C297.667 165.494 307.513 155.64 307.513 143.484C307.513 131.328 297.667 121.474 285.521 121.474C273.376 121.474 263.53 131.328 263.53 143.484C263.53 155.64 273.376 165.494 285.521 165.494Z" fill="black"/>
<path d="M3.8521 130.353C2.52138 132.362 0 136.755 0 142.713C0 147.853 1.89103 151.755 3.08168 153.764C18.4667 154.208 33.8751 154.629 49.2601 155.073C49.5169 146.825 49.7737 138.601 50.0305 130.353C34.6222 130.353 19.2371 130.353 3.8521 130.353Z" fill="#08AF0C"/>
<path d="M101.555 131.334C100.902 138.484 100.248 145.634 99.6177 152.783C106.972 152.993 114.349 153.227 121.703 153.437C122.147 145.634 122.567 137.83 123.01 130.026C115.867 130.47 108.723 130.914 101.555 131.334Z" fill="#08AF0C"/>
<path d="M129.15 131.334C128.916 138.483 128.659 145.633 128.426 152.783C135.71 152.806 146.752 152.713 160.27 152.128C173.6 151.568 178.106 151.007 185.6 150.82C195.662 150.586 210.207 151.1 228.277 154.722C228.51 145.843 228.767 136.941 229 128.063C214.549 130.609 202.596 131.567 194.262 131.965C190.199 132.151 184.41 132.338 160.246 131.965C147.313 131.778 136.62 131.521 129.15 131.334Z" fill="#08AF0C"/>
<path d="M236.052 128.086C236.286 136.288 236.519 144.489 236.753 152.69C244.807 152.947 252.885 153.18 260.939 153.437C260.706 145.236 260.472 137.035 260.239 128.834C252.184 128.577 244.13 128.343 236.052 128.086Z" fill="#08AF0C"/>
<path d="M309.896 131.988C309.896 139.138 309.896 146.287 309.896 153.437C325.164 153.881 340.456 154.301 355.724 154.745C361 149.909 362.448 143.133 359.483 137.829C356.681 132.852 351.055 131.053 349.724 130.68C336.464 131.123 323.18 131.544 309.896 131.988Z" fill="#08AF0C"/>
</svg>
