<svg xmlns="http://www.w3.org/2000/svg" viewBox="0 0 578.56 596.21"><g id="Layer_2" data-name="Layer 2"><g id="Layer_2-2" data-name="Layer 2"><path d="M466.64,195s-50.37,3.56-98.63,7.15c6.58-3.36,21.25-9,48.46-11.64,29.68-2.81,153.19-5.3,153.19-5.3S447.89,206,418.22,208.8c-27.22,2.58-42.7-.24-49.79-2.31C416.5,200.93,466.64,195,466.64,195Z" fill="#7c9945"/><path d="M468.55,152.06s-41.86,14.62-81.9,28.81c4.56-5,15.29-14.08,37.7-22.67,24.43-9.36,129-38.64,129-38.64S456,167.67,431.58,177c-22.41,8.59-36.5,9-43.2,8.35C427.65,169.17,468.55,152.06,468.55,152.06Z" fill="#7c9945"/><path d="M488.29,82.8s-44.94,39.41-87.87,77.32c4-7.69,14-23.26,37.85-45.13C464.27,91.14,578.56,0,578.56,0S477.93,106,451.93,129.84c-23.84,21.88-40.23,30.54-48.24,33.84C445.16,124.17,488.29,82.8,488.29,82.8Z" fill="#7c9945"/><path d="M388.17,246.52s-27.56,1.52-54,3.17c3.42-3.35,11.16-8.87,26-10.41,16.19-1.68,84.17,1.4,84.17,1.4s-65.89,17-82.09,18.66c-14.85,1.54-23.56-2.26-27.6-4.84C360.88,250.69,388.17,246.52,388.17,246.52Z" fill="#7c9945"/><path d="M358.35,162.47S347.26,187.72,336.8,212c-1.45-4.56-2.88-13.95,2.46-27.88,5.81-15.19,39.27-74.35,39.27-74.35s-14.59,66.36-20.41,81.55c-5.33,13.93-12.67,20-16.8,22.41C349.75,188.67,358.35,162.47,358.35,162.47Z" fill="#7c9945"/><path d="M386.65,182.29a57.13,57.13,0,0,0-6.35,3.78c-1.95,1.31-4.3,3-6.89,5s-5.45,4.37-8.46,7.06-6.21,5.7-9.44,9l-1.23,1.24-1.22,1.29-2.48,2.63L348.1,215l-1.25,1.39c-.42.47-.82,1-1.24,1.43l-2.5,2.9c-.84,1-1.64,2-2.47,3s-1.68,2-2.49,3l-2.45,3.12c-.41.52-.82,1-1.24,1.57l-1.2,1.6-2.42,3.22c-.82,1.07-1.58,2.18-2.37,3.27l-2.36,3.3c-1.55,2.21-3.06,4.45-4.59,6.67s-2.94,4.49-4.39,6.72-2.81,4.49-4.2,6.7c-.69,1.1-1.35,2.22-2,3.32l-1.95,3.3c-.64,1.09-1.31,2.16-1.91,3.25L305.24,276c-1.19,2.13-2.4,4.19-3.48,6.24l-3.21,6c-1,1.93-2,3.82-2.91,5.62s-1.83,3.52-2.64,5.18l-2.3,4.72-2,4.14L287,311.45l-3.13,6.74,7.85,3.31,2.75-6.79c.44-1.08.93-2.27,1.46-3.58l1.79-4.18,2-4.75c.72-1.68,1.53-3.41,2.34-5.24s1.67-3.72,2.59-5.67,1.89-4,2.87-6,2.05-4.16,3.13-6.32l1.63-3.25c.55-1.11,1.15-2.19,1.72-3.3s1.18-2.22,1.77-3.34,1.19-2.26,1.82-3.38c1.26-2.24,2.5-4.53,3.8-6.81s2.65-4.56,4-6.84,2.77-4.55,4.19-6.81c.73-1.12,1.45-2.24,2.17-3.36s1.43-2.25,2.19-3.34l2.22-3.3c.37-.55.75-1.09,1.11-1.64l1.15-1.61c.76-1.07,1.51-2.14,2.27-3.2s1.54-2.09,2.3-3.13,1.52-2.07,2.3-3.07l2.33-3c.39-.49.76-1,1.15-1.47l1.18-1.44,2.31-2.83,2.32-2.72c.39-.44.77-.89,1.15-1.33l1.15-1.29c3-3.46,6.07-6.57,8.91-9.41s5.58-5.29,8.05-7.43,4.72-3.88,6.6-5.28A57,57,0,0,1,386.65,182.29Z" fill="#7c9945"/><path d="M424.72,452.71s-50.38,3.57-98.63,7.15c6.58-3.36,21.25-9.05,48.46-11.63,29.67-2.82,153.18-5.3,153.18-5.3S406,463.74,376.3,466.56c-27.22,2.59-42.7-.24-49.8-2.3C374.57,458.7,424.72,452.71,424.72,452.71Z" fill="#7c9945"/><path d="M426.63,409.83s-41.86,14.61-81.91,28.8c4.57-4.94,15.3-14.07,37.71-22.66,24.43-9.36,129-38.65,129-38.65s-97.36,48.11-121.79,57.48c-22.41,8.58-36.5,9-43.2,8.34C385.73,426.93,426.63,409.83,426.63,409.83Z" fill="#7c9945"/><path d="M446.37,340.56S401.43,380,358.49,417.89c4-7.7,14-23.26,37.86-45.14,26-23.84,140.29-115,140.29-115S436,363.76,410,387.61c-23.84,21.87-40.23,30.53-48.24,33.84C403.24,381.94,446.37,340.56,446.37,340.56Z" fill="#7c9945"/><path d="M346.25,504.28s-27.57,1.53-54,3.18c3.43-3.36,11.17-8.87,26-10.41,16.19-1.69,84.17,1.4,84.17,1.4s-65.89,17-82.09,18.65c-14.85,1.55-23.56-2.26-27.61-4.84C319,508.45,346.25,504.28,346.25,504.28Z" fill="#7c9945"/><path d="M316.43,420.24s-11.1,25.24-21.55,49.51c-1.45-4.57-2.88-14,2.46-27.89,5.81-15.18,39.27-74.35,39.27-74.35S322,433.88,316.2,449.07c-5.33,13.92-12.67,20-16.8,22.4C307.82,446.43,316.43,420.24,316.43,420.24Z" fill="#7c9945"/><path d="M344.73,440.05a56.48,56.48,0,0,0-6.35,3.79c-2,1.31-4.3,3-6.89,5s-5.45,4.37-8.46,7.07-6.21,5.7-9.44,9l-1.23,1.25c-.41.42-.81.85-1.22,1.28l-2.48,2.63-2.48,2.74-1.25,1.39c-.42.47-.82.95-1.24,1.43l-2.5,2.89c-.84,1-1.64,2-2.48,3s-1.67,2-2.48,3.05l-2.45,3.12c-.41.52-.83,1-1.24,1.57l-1.2,1.6-2.42,3.22c-.82,1.07-1.59,2.17-2.38,3.27l-2.36,3.29c-1.54,2.21-3.05,4.45-4.58,6.67s-2.94,4.49-4.39,6.72-2.81,4.49-4.2,6.7c-.7,1.1-1.35,2.22-2,3.33s-1.31,2.2-1.95,3.29-1.31,2.16-1.91,3.25l-1.82,3.22c-1.2,2.12-2.4,4.18-3.48,6.24s-2.18,4-3.21,6-2,3.81-2.91,5.61-1.83,3.53-2.64,5.19l-2.3,4.71c-.73,1.48-1.4,2.87-2,4.15l-1.65,3.55L242,576l7.85,3.32,2.75-6.79L254,568.9l1.79-4.18q1-2.24,2-4.76c.73-1.67,1.54-3.41,2.35-5.23s1.67-3.73,2.59-5.68,1.89-3.95,2.87-6,2-4.17,3.12-6.32l1.64-3.26c.54-1.1,1.15-2.19,1.72-3.29s1.18-2.22,1.77-3.35,1.18-2.25,1.82-3.37c1.25-2.25,2.5-4.54,3.8-6.81s2.65-4.56,4-6.85,2.77-4.54,4.19-6.8c.73-1.12,1.45-2.24,2.17-3.36s1.43-2.25,2.18-3.35l2.23-3.29,1.11-1.65,1.15-1.61c.76-1.07,1.51-2.14,2.27-3.2s1.54-2.09,2.3-3.13,1.52-2.07,2.3-3.07l2.33-3c.39-.49.76-1,1.15-1.47l1.17-1.43,2.32-2.83,2.32-2.72,1.15-1.34,1.15-1.29c3-3.45,6.07-6.57,8.91-9.4s5.58-5.3,8.05-7.43,4.72-3.88,6.6-5.28A56.42,56.42,0,0,1,344.73,440.05Z" fill="#7c9945"/><path d="M101.21,229.69s49.62,9.33,97.15,18.44c-6.15-4.1-20.07-11.44-46.81-17.13C122.4,224.79,0,208.13,0,208.13S118.56,242.8,147.71,249c26.73,5.69,42.43,4.66,49.72,3.43C150.32,241.39,101.21,229.69,101.21,229.69Z" fill="#7c9945"/><path d="M110.42,187.29s39.89,19.33,78,38c-4-5.43-13.57-15.73-34.84-26.84C130.43,186.36,29.9,145.25,29.9,145.25s91.17,59,114.36,71.09c21.27,11.11,35.23,13.11,42,13.26C149.08,209,110.42,187.29,110.42,187.29Z" fill="#7c9945"/><path d="M173.2,289.93s27.21,4.68,53.25,9.35c-3-3.72-10.07-10.09-24.65-13.33-15.89-3.53-83.78-8.28-83.78-8.28s63.5,24.44,79.39,28c14.58,3.24,23.67.46,28-1.64C199.83,297.21,173.2,289.93,173.2,289.93Z" fill="#7c9945"/><path d="M212.52,209.87s8.11,26.35,15.69,51.66c2-4.37,4.47-13.53.78-28-4-15.76-30.45-78.37-30.45-78.37s6.86,67.6,10.88,83.35c3.69,14.45,10.28,21.3,14.11,24.19C218.05,236.88,212.52,209.87,212.52,209.87Z" fill="#7c9945"/><path d="M182.12,226.3a58.29,58.29,0,0,1,5.87,4.49c1.79,1.53,3.93,3.43,6.27,5.73s4.92,5,7.6,8,5.51,6.37,8.33,10l1.08,1.37,1.06,1.42c.72,1,1.44,1.92,2.16,2.9l2.15,3,1.08,1.52,1.07,1.56c.71,1.05,1.42,2.11,2.15,3.17s1.4,2.16,2.11,3.25,1.43,2.19,2.12,3.31l2.08,3.38c.34.57.69,1.14,1,1.71s.68,1.15,1,1.73c.68,1.15,1.36,2.31,2,3.47s1.33,2.35,2,3.52l2,3.54c1.29,2.38,2.52,4.78,3.78,7.16s2.41,4.8,3.6,7.18,2.27,4.78,3.39,7.14c.57,1.17,1.09,2.36,1.62,3.53l1.56,3.5c.51,1.16,1,2.29,1.52,3.44s1,2.28,1.44,3.41c.94,2.25,1.9,4.43,2.73,6.6l2.51,6.29c.8,2,1.52,4,2.24,5.91s1.41,3.71,2,5.45,1.2,3.4,1.75,5,1.06,3,1.53,4.35l1.23,3.72,2.34,7.06-8.19,2.39-2-7.06c-.31-1.13-.65-2.37-1-3.72s-.83-2.81-1.3-4.36-.95-3.22-1.47-5-1.13-3.56-1.73-5.47S251.65,346,251,344l-2.15-6.31c-.73-2.18-1.56-4.37-2.38-6.64l-1.25-3.42c-.41-1.16-.88-2.3-1.33-3.47s-.91-2.34-1.37-3.52-.92-2.38-1.42-3.57c-1-2.37-2-4.79-3-7.2S236,305,234.87,302.6s-2.23-4.83-3.38-7.24l-1.77-3.59c-.59-1.19-1.16-2.4-1.78-3.57l-1.84-3.53-.91-1.76c-.32-.58-.63-1.16-.95-1.73l-1.89-3.44c-.62-1.15-1.29-2.26-1.92-3.38s-1.28-2.23-1.94-3.31l-2-3.24c-.33-.53-.65-1.07-1-1.59l-1-1.56-2-3.08-2-3-1-1.45c-.33-.48-.67-1-1-1.42-2.62-3.78-5.27-7.22-7.76-10.36s-4.94-5.9-7.14-8.31-4.24-4.4-5.95-6A57.65,57.65,0,0,0,182.12,226.3Z" fill="#7c9945"/><path d="M284.6,192.67c-.21,5.42-.49,10.89-.83,16.36-1.78,30.1-5.41,60.09-8.69,82.51-1.62,11.21-3.12,20.54-4.21,27.06l-1.73,10.25,22.74,3.37,1.27-10.47c.79-6.67,1.86-16.21,3-27.68,2.26-22.93,4.53-53.62,4.9-84.42.22-13.84,0-27.7-.54-40.84Z" fill="#7c9945"/><path d="M255,596.21s0-.93.14-2.67.23-4.29.4-7.54c.41-6.5,1.05-15.79,2.11-27,2.06-22.34,6-52.17,10.81-82.06s10.21-59.87,14-82.54c1.88-11.33,3.36-20.83,4.33-27.5s1.5-10.45,1.5-10.45l-23-3.75-2,10.21c-1.25,6.46-3.14,15.7-5.53,26.82-4.75,22.22-11.58,51.93-17.84,82s-11.77,60.39-15,83.44c-1.63,11.52-2.76,21.18-3.5,28-.35,3.4-.62,6.06-.8,7.88s-.27,2.8-.27,2.8Z" fill="#7c9945"/></g></g></svg>