<svg xmlns="http://www.w3.org/2000/svg" width="361" height="166" fill="none">
  <path fill="#000" d="M123.221 16.4724c-.654-1.0748-10.506-16.519-27.7122-16.4723-3.0117 0-12.7703.514-20.3578 8.2478-9.6419 9.8133-7.7509 23.178-7.354 25.5846 2.7549 16.8928 18.6535 24.1593 19.9142 24.7201 3.4552-6.5188 8.3345-14.3928 15.1518-22.5472 7.12-8.5515 14.334-14.9301 20.358-19.533ZM228.978 16.4724c.654-1.0748 10.506-16.519 27.712-16.4723 3.011 0 12.77.514 20.358 8.2478 9.641 9.8133 7.75 23.178 7.354 25.5846-2.755 16.8928-18.654 24.1593-19.915 24.7201-3.455-6.5188-8.334-14.3928-15.151-22.5472-7.121-8.5515-14.335-14.9301-20.358-19.533ZM151.002 61.8001c-5.136-5.0468-15.408-3.9721-21.758.9813-.491.3972-7.494 6.0281-7.144 14.9535.233 6.4487 4.272 13.9723 9.105 14.2994 2.194.1402 3.899-1.2384 7.144-3.902 4.319-3.5514 4.155-5.1636 8.778-9.7432 4.482-4.4627 6.28-4.5794 7.004-7.2664.84-3.3178-.888-7.1263-3.129-9.3226ZM206.752 62.174c5.136-5.0468 15.408-3.972 21.759.9813.49.3972 7.494 6.0281 7.143 14.9535-.233 6.4488-4.272 13.9723-9.104 14.2994-2.195.1401-3.899-1.2384-7.144-3.902-4.319-3.5514-4.156-5.1636-8.778-9.7431-4.483-4.4627-6.281-4.5796-7.004-7.2665-.841-3.3178.91-7.1263 3.128-9.3226ZM159.056 89.7213c17.113-5.3739 32.638-1.8458 38.125-.5374 1.05.257 2.381.5841 3.922 1.0514-.117 1.3318-.421 3.201-1.121 5.3506-1.751 5.3741-4.879 8.7151-7.144 11.0521-4.599 4.789-9.618 7.523-13.33 9.112-5.44-1.659-9.315-4.089-11.697-5.841-3.128-2.314-9.455-7.01-11.369-15.0708-.397-1.6355-.514-3.0374-.537-4.0187.77-.3038 1.844-.6776 3.151-1.0982ZM76.575 165.494c12.1458 0 21.9919-9.854 21.9919-22.01 0-12.156-9.8461-22.01-21.9919-22.01-12.1459 0-21.992 9.854-21.992 22.01 0 12.156 9.8461 22.01 21.992 22.01ZM285.521 165.494c12.146 0 21.992-9.854 21.992-22.01 0-12.156-9.846-22.01-21.992-22.01-12.145 0-21.991 9.854-21.991 22.01 0 12.156 9.846 22.01 21.991 22.01Z"/>
  <path fill="#08AF0C" d="M3.8521 130.353C2.5214 132.362 0 136.755 0 142.713c0 5.14 1.891 9.042 3.0817 11.051 15.385.444 30.7934.865 46.1784 1.309.2568-8.248.5136-16.472.7704-24.72H3.8521ZM101.555 131.334c-.653 7.15-1.307 14.3-1.9373 21.449 7.3543.21 14.7313.444 22.0853.654.444-7.803.864-15.607 1.307-23.411-7.143.444-14.287.888-21.455 1.308ZM129.15 131.334c-.234 7.149-.491 14.299-.724 21.449 7.284.023 18.326-.07 31.844-.655 13.33-.56 17.836-1.121 25.33-1.308 10.062-.234 24.607.28 42.677 3.902.233-8.879.49-17.781.723-26.659-14.451 2.546-26.404 3.504-34.738 3.902-4.063.186-9.852.373-34.016 0-12.933-.187-23.626-.444-31.096-.631ZM236.052 128.086c.234 8.202.467 16.403.701 24.604 8.054.257 16.132.49 24.186.747-.233-8.201-.467-16.402-.7-24.603-8.055-.257-16.109-.491-24.187-.748ZM309.896 131.988v21.449c15.268.444 30.56.864 45.828 1.308 5.276-4.836 6.724-11.612 3.759-16.916-2.802-4.977-8.428-6.776-9.759-7.149-13.26.443-26.544.864-39.828 1.308Z"/>
</svg>
