<svg width="183" height="105" viewBox="0 0 183 105" fill="none" xmlns="http://www.w3.org/2000/svg">
<path d="M72.4599 5.47558C72.2426 5.11831 68.9676 -0.0154983 63.2482 3.51777e-05C62.2471 3.51777e-05 59.0032 0.170908 56.4811 2.7417C53.276 6.00372 53.9046 10.4463 54.0365 11.2463C54.9523 16.8616 60.2371 19.2771 60.6562 19.4635C61.8047 17.2965 63.4267 14.6792 65.6927 11.9686C68.0597 9.12594 70.4577 7.00563 72.4599 5.47558Z" fill="#0A0A0A"/>
<path d="M107.615 5.47558C107.832 5.11831 111.107 -0.0154983 116.826 3.51777e-05C117.827 3.51777e-05 121.071 0.170908 123.593 2.7417C126.798 6.00372 126.17 10.4463 126.038 11.2463C125.122 16.8616 119.837 19.2771 119.418 19.4635C118.27 17.2965 116.648 14.6792 114.382 11.9686C112.015 9.12594 109.617 7.00563 107.615 5.47558Z" fill="#0A0A0A"/>
<path d="M81.6947 20.5431C79.9874 18.8655 76.5728 19.2227 74.4619 20.8693C74.299 21.0013 71.9708 22.8731 72.0872 25.84C72.1648 27.9836 73.5074 30.4845 75.1138 30.5932C75.8433 30.6398 76.4098 30.1816 77.4885 29.2962C78.9242 28.1156 78.8699 27.5797 80.4064 26.0574C81.8964 24.574 82.494 24.5352 82.7346 23.642C83.014 22.5391 82.4397 21.2731 81.6947 20.5431Z" fill="#0A0A0A"/>
<path d="M100.226 20.6673C101.934 18.9897 105.348 19.347 107.459 20.9935C107.622 21.1256 109.95 22.9974 109.834 25.9642C109.756 28.1079 108.414 30.6087 106.807 30.7175C106.078 30.7641 105.511 30.3058 104.433 29.4204C102.997 28.2399 103.051 27.704 101.515 26.1817C100.025 24.6983 99.4271 24.6594 99.1865 23.7663C98.9072 22.6634 99.4892 21.3974 100.226 20.6673Z" fill="#0A0A0A"/>
<path d="M84.3721 29.8242C90.0605 28.0378 95.2212 29.2106 97.0449 29.6455C97.3942 29.731 97.8365 29.8397 98.3487 29.995C98.3099 30.4377 98.209 31.0591 97.9762 31.7736C97.3942 33.5599 96.3543 34.6706 95.6015 35.4473C94.0727 37.0395 92.4042 37.9482 91.1703 38.4763C89.3621 37.9249 88.0739 37.1171 87.2823 36.5346C86.2424 35.7657 84.1393 34.2046 83.503 31.5251C83.371 30.9814 83.3322 30.5154 83.3245 30.1892C83.5806 30.0882 83.9375 29.964 84.3721 29.8242Z" fill="#0A0A0A"/>
<path d="M56.9544 55.0119C60.9918 55.0119 64.2647 51.7363 64.2647 47.6957C64.2647 43.655 60.9918 40.3794 56.9544 40.3794C52.917 40.3794 49.644 43.655 49.644 47.6957C49.644 51.7363 52.917 55.0119 56.9544 55.0119Z" fill="#0A0A0A"/>
<path d="M126.41 55.0119C130.448 55.0119 133.721 51.7363 133.721 47.6957C133.721 43.655 130.448 40.3794 126.41 40.3794C122.373 40.3794 119.1 43.655 119.1 47.6957C119.1 51.7363 122.373 55.0119 126.41 55.0119Z" fill="#0A0A0A"/>
<path d="M32.7805 43.3308C32.3381 43.9987 31.5 45.4589 31.5 47.4394C31.5 49.1481 32.1286 50.4451 32.5244 51.1131C37.6385 51.2606 42.7604 51.4004 47.8746 51.548C47.9599 48.8064 48.0453 46.0725 48.1307 43.3308C43.0088 43.3308 37.8946 43.3308 32.7805 43.3308Z" fill="#65A30D"/>
<path d="M65.2579 43.6569C65.0406 46.0335 64.8233 48.4101 64.6138 50.7867C67.0583 50.8566 69.5106 50.9343 71.9552 51.0042C72.1026 48.4101 72.2423 45.816 72.3897 43.2219C70.015 43.3695 67.6403 43.5171 65.2579 43.6569Z" fill="#65A30D"/>
<path d="M74.4308 43.6567C74.3532 46.0333 74.2678 48.4099 74.1902 50.7865C76.6114 50.7943 80.2821 50.7632 84.7754 50.5691C89.2067 50.3827 90.7044 50.1963 93.1955 50.1341C96.5403 50.0565 101.375 50.2273 107.382 51.4312C107.459 48.4798 107.545 45.5207 107.622 42.5693C102.819 43.4159 98.8451 43.7343 96.0747 43.8664C94.7243 43.9285 92.7997 43.9906 84.7677 43.8664C80.4684 43.8042 76.9141 43.7188 74.4308 43.6567Z" fill="#65A30D"/>
<path d="M109.966 42.5774C110.044 45.3035 110.121 48.0296 110.199 50.7558C112.876 50.8412 115.561 50.9189 118.239 51.0043C118.161 48.2782 118.084 45.5521 118.006 42.8259C115.329 42.7405 112.651 42.6628 109.966 42.5774Z" fill="#65A30D"/>
<path d="M134.512 43.8741C134.512 46.2508 134.512 48.6274 134.512 51.004C139.588 51.1516 144.671 51.2914 149.746 51.4389C151.5 49.8312 151.981 47.5789 150.996 45.8158C150.064 44.1615 148.194 43.5635 147.752 43.4392C143.344 43.5868 138.928 43.7266 134.512 43.8741Z" fill="#65A30D"/>
<path d="M7.336 75.5517L7.364 75.8877C7.364 76.5971 7.09333 78.9211 6.552 82.8597C6.02933 86.7797 5.768 90.0557 5.768 92.6877C5.768 93.8637 5.824 94.7784 5.936 95.4317C5.488 95.4691 5.24533 95.4877 5.208 95.4877C4.368 95.4877 3.74267 95.3011 3.332 94.9277C2.92133 94.5357 2.716 93.9104 2.716 93.0517C2.716 92.1744 3.024 89.5237 3.64 85.0997C4.27467 80.6571 4.592 77.4931 4.592 75.6077C4.592 73.7037 4.46133 72.4624 4.2 71.8837C4.79733 71.9584 5.348 72.1917 5.852 72.5837C6.37467 72.9571 6.76667 73.4611 7.028 74.0957C8.44667 73.3304 10.024 72.9477 11.76 72.9477C13.5147 72.9477 14.8867 73.4891 15.876 74.5717C16.884 75.6357 17.388 76.9517 17.388 78.5197C17.388 80.5171 16.66 82.3184 15.204 83.9237C13.748 85.5104 11.788 86.3037 9.324 86.3037C8.764 86.3037 8.25067 86.2664 7.784 86.1917L7.7 85.2957C8.95067 85.2957 10.0427 85.1091 10.976 84.7357C11.9093 84.3624 12.6187 83.8677 13.104 83.2517C14.056 82.0571 14.532 80.6571 14.532 79.0517C14.532 77.8944 14.1587 76.9331 13.412 76.1677C12.684 75.3837 11.62 74.9917 10.22 74.9917C9.38 74.9917 8.41867 75.1784 7.336 75.5517ZM23.5786 84.0637C23.0373 84.9971 22.6173 85.9584 22.3186 86.9477C22.0386 87.9184 21.8986 88.8517 21.8986 89.7477C21.8986 90.6437 22.0946 91.4091 22.4866 92.0437C22.8973 92.6597 23.476 92.9677 24.2226 92.9677C25.268 92.9677 26.248 92.3984 27.1626 91.2597C28.0773 90.1024 28.7773 88.7117 29.2626 87.0877C29.7666 85.4451 30.0186 83.9331 30.0186 82.5517C30.0186 81.1517 29.9626 80.0037 29.8506 79.1077C30.2986 79.0704 30.5786 79.0517 30.6906 79.0517C32.2773 79.0517 33.0706 79.8637 33.0706 81.4877C33.0706 81.8424 32.8466 83.2891 32.3986 85.8277C31.9506 88.3477 31.7266 90.3731 31.7266 91.9037C31.7266 93.4157 32.016 94.7597 32.5946 95.9357C31.4186 95.6931 30.56 95.1797 30.0186 94.3957C29.496 93.5931 29.2346 92.4451 29.2346 90.9517C29.2346 90.6904 29.272 90.1864 29.3466 89.4397C28.8426 91.2131 27.956 92.6411 26.6866 93.7237C25.4173 94.8064 24.1666 95.3477 22.9346 95.3477C21.7213 95.3477 20.7413 94.8904 19.9946 93.9757C19.248 93.0424 18.8746 91.7637 18.8746 90.1397C18.8746 88.4971 19.1733 86.9011 19.7706 85.3517C20.3866 83.7837 21.3013 82.4304 22.5146 81.2917C23.7466 80.1531 25.1186 79.5837 26.6306 79.5837C27.284 79.5837 28.0026 79.7144 28.7866 79.9757C27.6853 80.2557 26.6773 80.7691 25.7626 81.5157C24.848 82.2624 24.12 83.1117 23.5786 84.0637ZM50.3681 82.8317C50.3681 83.6904 50.1814 85.2117 49.8081 87.3957C49.4534 89.5611 49.2761 91.1384 49.2761 92.1277C49.2761 93.1171 49.3974 93.8357 49.6401 94.2837C49.8827 94.7131 50.2934 95.0864 50.8721 95.4037C50.6294 95.4224 50.2841 95.4317 49.8361 95.4317C48.5667 95.4317 47.6614 95.1984 47.1201 94.7317C46.5974 94.2464 46.3361 93.3877 46.3361 92.1557C46.3361 91.4651 46.5227 90.0744 46.8961 87.9837C47.2694 85.8744 47.4561 84.3251 47.4561 83.3357C47.4561 82.1037 47.0827 81.4877 46.3361 81.4877C45.1414 81.4877 43.9001 82.5424 42.6121 84.6517C41.3427 86.7611 40.7081 89.2997 40.7081 92.2677C40.7081 93.4437 40.7641 94.3584 40.8761 95.0117C40.3907 95.0491 40.1014 95.0677 40.0081 95.0677C38.3654 95.0677 37.5441 94.2651 37.5441 92.6597C37.5441 92.2864 37.7401 90.8491 38.1321 88.3477C38.5241 85.8464 38.7201 83.8584 38.7201 82.3837C38.7201 80.8904 38.5614 79.5184 38.2441 78.2677C39.3454 78.6971 40.1107 79.3131 40.5401 80.1157C40.9881 80.8997 41.2121 81.8051 41.2121 82.8317C41.2121 83.8397 41.1001 85.0157 40.8761 86.3597C41.4921 84.2504 42.4534 82.4771 43.7601 81.0397C45.0854 79.5837 46.3174 78.8557 47.4561 78.8557C49.3974 78.8557 50.3681 80.1811 50.3681 82.8317ZM57.1434 89.3557C57.1434 90.4197 57.3487 91.2877 57.7594 91.9597C58.1701 92.6317 58.8047 92.9677 59.6634 92.9677C60.5407 92.9677 61.3341 92.5851 62.0434 91.8197C62.7714 91.0357 63.3501 89.9904 63.7794 88.6837C64.2274 87.3584 64.6101 85.9584 64.9274 84.4837C65.2634 82.9904 65.5061 81.4037 65.6554 79.7237C65.9354 76.6064 66.0754 74.1331 66.0754 72.3037C66.0754 70.4744 66.0007 69.1117 65.8514 68.2157C67.7741 68.8317 68.7354 70.7637 68.7354 74.0117C68.7354 75.3371 68.4181 78.0064 67.7834 82.0197C67.1674 86.0331 66.8594 88.9637 66.8594 90.8117C66.8594 92.6597 66.9434 94.2277 67.1114 95.5157C66.0474 95.1611 65.3194 94.5264 64.9274 93.6117C64.5354 92.6971 64.3394 91.5304 64.3394 90.1117C63.7607 91.7171 62.9021 92.9864 61.7634 93.9197C60.6247 94.8531 59.4394 95.3197 58.2074 95.3197C56.9941 95.3197 56.0047 94.8531 55.2394 93.9197C54.4927 92.9677 54.1194 91.5771 54.1194 89.7477C54.1194 86.7051 54.9127 84.2037 56.4994 82.2437C58.1047 80.2837 60.0927 79.3037 62.4634 79.3037C63.1354 79.3037 63.8541 79.4064 64.6194 79.6117C63.3501 79.8171 62.2114 80.2837 61.2034 81.0117C60.1954 81.7211 59.4114 82.5611 58.8514 83.5317C57.7127 85.5104 57.1434 87.4517 57.1434 89.3557ZM76.1333 84.0637C75.592 84.9971 75.172 85.9584 74.8733 86.9477C74.5933 87.9184 74.4533 88.8517 74.4533 89.7477C74.4533 90.6437 74.6493 91.4091 75.0413 92.0437C75.452 92.6597 76.0306 92.9677 76.7773 92.9677C77.8226 92.9677 78.8026 92.3984 79.7173 91.2597C80.632 90.1024 81.332 88.7117 81.8173 87.0877C82.3213 85.4451 82.5733 83.9331 82.5733 82.5517C82.5733 81.1517 82.5173 80.0037 82.4053 79.1077C82.8533 79.0704 83.1333 79.0517 83.2453 79.0517C84.832 79.0517 85.6253 79.8637 85.6253 81.4877C85.6253 81.8424 85.4013 83.2891 84.9533 85.8277C84.5053 88.3477 84.2813 90.3731 84.2813 91.9037C84.2813 93.4157 84.5706 94.7597 85.1493 95.9357C83.9733 95.6931 83.1146 95.1797 82.5733 94.3957C82.0506 93.5931 81.7893 92.4451 81.7893 90.9517C81.7893 90.6904 81.8266 90.1864 81.9013 89.4397C81.3973 91.2131 80.5106 92.6411 79.2413 93.7237C77.972 94.8064 76.7213 95.3477 75.4893 95.3477C74.276 95.3477 73.296 94.8904 72.5493 93.9757C71.8026 93.0424 71.4293 91.7637 71.4293 90.1397C71.4293 88.4971 71.728 86.9011 72.3253 85.3517C72.9413 83.7837 73.856 82.4304 75.0693 81.2917C76.3013 80.1531 77.6733 79.5837 79.1853 79.5837C79.8386 79.5837 80.5573 79.7144 81.3413 79.9757C80.24 80.2557 79.232 80.7691 78.3173 81.5157C77.4026 82.2624 76.6746 83.1117 76.1333 84.0637ZM110.401 85.0997L106.341 85.0437C105.482 85.0437 104.633 85.0717 103.793 85.1277C103.326 88.4691 103.093 90.9424 103.093 92.5477C103.093 94.1531 103.224 95.2637 103.485 95.8797C102.328 95.4691 101.506 94.9184 101.021 94.2277C100.554 93.5184 100.321 92.6971 100.321 91.7637C100.321 90.8117 100.414 89.5984 100.601 88.1237C100.806 86.6304 100.928 85.7717 100.965 85.5477C100.33 85.6971 99.8543 85.8277 99.5369 85.9397C99.4996 85.6037 99.4809 85.2491 99.4809 84.8757C99.4809 83.8117 100.097 83.1864 101.329 82.9997C101.74 79.8264 101.945 77.1104 101.945 74.8517C101.945 74.2917 101.908 73.5264 101.833 72.5557C103.252 72.6304 104.138 72.9664 104.493 73.5637C104.68 73.8997 104.801 74.2264 104.857 74.5437C104.913 74.8424 104.941 75.3651 104.941 76.1117C104.941 76.8584 104.801 78.1371 104.521 79.9477C104.26 81.7584 104.12 82.7477 104.101 82.9157C107.424 82.9157 110.41 82.8877 113.061 82.8317C113.472 79.7144 113.677 77.0544 113.677 74.8517C113.677 74.2917 113.64 73.5264 113.565 72.5557C114.984 72.6304 115.87 72.9664 116.225 73.5637C116.412 73.8997 116.533 74.2264 116.589 74.5437C116.645 74.8424 116.673 75.3651 116.673 76.1117C116.673 76.8584 116.365 79.3411 115.749 83.5597C115.133 87.7784 114.825 90.7371 114.825 92.4357C114.825 94.1157 114.956 95.2637 115.217 95.8797C114.06 95.4691 113.238 94.9184 112.753 94.2277C112.286 93.5184 112.053 92.6971 112.053 91.7637C112.053 90.8117 112.249 88.8891 112.641 85.9957L113.033 83.1397C112.753 84.4464 111.876 85.0997 110.401 85.0997ZM131.821 85.8277C131.821 83.9984 131.588 82.6917 131.121 81.9077C130.673 81.1051 130.02 80.7037 129.161 80.7037C128.321 80.7037 127.472 81.1237 126.613 81.9637C125.755 82.7851 125.073 83.8117 124.569 85.0437C124.084 86.2571 123.841 87.5264 123.841 88.8517C123.841 90.1584 124.093 91.2971 124.597 92.2677C125.101 93.2197 125.867 93.6957 126.893 93.6957C128.349 93.6957 129.535 92.8371 130.449 91.1197C131.364 89.4024 131.821 87.6384 131.821 85.8277ZM123.701 84.7357C124.411 82.7197 125.363 81.2544 126.557 80.3397C127.771 79.4064 128.993 78.9397 130.225 78.9397C131.476 78.9397 132.512 79.4904 133.333 80.5917C134.155 81.6744 134.565 83.1491 134.565 85.0157C134.565 87.0691 134.173 88.9731 133.389 90.7277C132.512 92.6691 131.243 94.0224 129.581 94.7877C128.685 95.2171 127.696 95.4317 126.613 95.4317C125.101 95.4317 123.776 94.8064 122.637 93.5557C121.499 92.2864 120.929 90.4851 120.929 88.1517C120.929 85.7997 121.433 83.7651 122.441 82.0477C123.449 80.3304 124.821 79.1357 126.557 78.4637C126.931 78.4637 127.117 78.6504 127.117 79.0237C125.269 80.2371 124.131 82.1411 123.701 84.7357ZM148.711 78.7997C150.316 78.7997 151.119 79.6304 151.119 81.2917C151.119 81.5904 150.941 82.9064 150.587 85.2397C150.232 87.5544 150.055 89.5424 150.055 91.2037C150.055 92.8651 150.232 94.3304 150.587 95.5997C149.448 95.1517 148.655 94.5171 148.207 93.6957C147.777 92.8744 147.563 91.8571 147.563 90.6437C147.563 90.1771 147.665 89.1224 147.871 87.4797C147.311 89.6077 146.443 91.3997 145.267 92.8557C144.091 94.2931 142.999 95.0117 141.991 95.0117C139.863 95.0117 138.799 93.4624 138.799 90.3637C138.799 89.3371 138.948 87.9091 139.247 86.0797C139.564 84.2317 139.723 82.8317 139.723 81.8797C139.723 80.9277 139.592 79.9664 139.331 78.9957C140.525 78.9957 141.421 79.2011 142.019 79.6117C142.616 80.0224 142.915 80.8157 142.915 81.9917C142.915 82.6264 142.719 83.9331 142.327 85.9117C141.935 87.8904 141.739 89.3557 141.739 90.3077C141.739 91.6891 142.168 92.3797 143.027 92.3797C143.736 92.3797 144.473 91.8291 145.239 90.7277C146.023 89.6077 146.676 88.1611 147.199 86.3877C147.721 84.6144 147.983 82.8597 147.983 81.1237C147.983 80.3397 147.927 79.5837 147.815 78.8557C148.225 78.8184 148.524 78.7997 148.711 78.7997ZM161.295 80.2277C160.679 80.2277 160.119 80.4237 159.615 80.8157C159.13 81.2077 158.887 81.7491 158.887 82.4397C158.887 83.1117 159.111 83.7464 159.559 84.3437C160.026 84.9411 160.586 85.4731 161.239 85.9397C161.892 86.4064 162.555 86.8824 163.227 87.3677C164.795 88.5251 165.579 89.7664 165.579 91.0917C165.579 92.4171 165.047 93.4997 163.983 94.3397C162.919 95.1611 161.556 95.5717 159.895 95.5717C158.252 95.5717 156.974 95.2451 156.059 94.5917C155.163 93.9384 154.715 93.1731 154.715 92.2957C154.715 91.3997 154.939 90.6997 155.387 90.1957C155.835 89.6917 156.376 89.4397 157.011 89.4397C157.347 89.4397 157.664 89.5144 157.963 89.6637C157.552 90.1864 157.347 90.8024 157.347 91.5117C157.347 92.2211 157.562 92.8184 157.991 93.3037C158.439 93.7891 159.046 94.0317 159.811 94.0317C160.595 94.0317 161.258 93.8357 161.799 93.4437C162.34 93.0331 162.611 92.5197 162.611 91.9037C162.611 91.2877 162.452 90.7464 162.135 90.2797C161.818 89.8131 161.416 89.4117 160.931 89.0757C160.464 88.7397 159.951 88.3664 159.391 87.9557C158.831 87.5451 158.308 87.1437 157.823 86.7517C157.356 86.3411 156.964 85.8371 156.647 85.2397C156.33 84.6237 156.171 83.9517 156.171 83.2237C156.171 81.8984 156.675 80.8157 157.683 79.9757C158.691 79.1171 159.96 78.6877 161.491 78.6877C163.022 78.6877 164.142 79.0051 164.851 79.6397C165.56 80.2744 165.915 80.9931 165.915 81.7957C165.915 82.5797 165.719 83.2331 165.327 83.7557C164.935 84.2597 164.431 84.5117 163.815 84.5117C163.516 84.5117 163.171 84.4277 162.779 84.2597C163.264 83.6624 163.507 83.0184 163.507 82.3277C163.507 81.6371 163.292 81.1144 162.863 80.7597C162.452 80.4051 161.93 80.2277 161.295 80.2277ZM176.75 80.3117C175.63 80.3117 174.678 80.9557 173.894 82.2437C173.128 83.5317 172.615 85.0437 172.354 86.7797H173.138C174.127 86.7797 174.986 86.6397 175.714 86.3597C176.442 86.0797 177.002 85.7157 177.394 85.2677C178.14 84.4091 178.514 83.4384 178.514 82.3557C178.514 81.7397 178.364 81.2451 178.066 80.8717C177.786 80.4984 177.347 80.3117 176.75 80.3117ZM180.698 91.6517C179.839 93.0517 178.896 94.0317 177.87 94.5917C176.843 95.1517 175.648 95.4317 174.286 95.4317C172.942 95.4317 171.766 94.8344 170.758 93.6397C169.75 92.4451 169.246 90.7651 169.246 88.5997C169.246 86.1357 169.908 83.9331 171.234 81.9917C171.887 81.0584 172.736 80.3024 173.782 79.7237C174.846 79.1451 176.012 78.8557 177.282 78.8557C180.082 78.8557 181.482 80.2091 181.482 82.9157C181.482 84.5397 180.847 85.8184 179.578 86.7517C178.327 87.6664 176.871 88.1237 175.21 88.1237C174.108 88.1237 173.119 88.0211 172.242 87.8157C172.223 88.0024 172.214 88.2917 172.214 88.6837C172.214 91.9877 173.194 93.6397 175.154 93.6397C177.002 93.6397 178.504 92.7251 179.662 90.8957C180.352 90.9891 180.698 91.2411 180.698 91.6517Z" fill="#0A0A0A"/>
</svg>
